<mxfile host="app.diagrams.net" agent="Mozilla/5.0 (X11; Linux x86_64) AppleWebKit/537.36 (KHTML, like Gecko) Chrome/134.0.0.0 Safari/537.36" version="26.1.1">
  <diagram name="Page-1" id="c4acf3e9-155e-7222-9cf6-157b1a14988f">
    <mxGraphModel dx="1364" dy="879" grid="1" gridSize="10" guides="1" tooltips="1" connect="1" arrows="1" fold="1" page="1" pageScale="1" pageWidth="850" pageHeight="1100" background="none" math="0" shadow="0">
      <root>
        <mxCell id="0" />
        <mxCell id="1" parent="0" />
        <mxCell id="MCamPFnZZMhp-FXQPMWc-1" value="frame" style="shape=umlFrame;whiteSpace=wrap;html=1;pointerEvents=0;" parent="1" vertex="1">
          <mxGeometry x="40" y="10" width="1080" height="760" as="geometry" />
        </mxCell>
        <mxCell id="MCamPFnZZMhp-FXQPMWc-2" value="&lt;b&gt;Packet Acquisition Engine&lt;/b&gt;" style="html=1;dropTarget=0;whiteSpace=wrap;" parent="1" vertex="1">
          <mxGeometry x="80" y="80" width="180" height="90" as="geometry" />
        </mxCell>
        <mxCell id="MCamPFnZZMhp-FXQPMWc-3" value="" style="shape=module;jettyWidth=8;jettyHeight=4;" parent="MCamPFnZZMhp-FXQPMWc-2" vertex="1">
          <mxGeometry x="1" width="20" height="20" relative="1" as="geometry">
            <mxPoint x="-27" y="7" as="offset" />
          </mxGeometry>
        </mxCell>
        <mxCell id="MCamPFnZZMhp-FXQPMWc-10" value="&lt;b&gt;Apache Kafka&lt;/b&gt;" style="html=1;dropTarget=0;whiteSpace=wrap;" parent="1" vertex="1">
          <mxGeometry x="400" y="80" width="180" height="90" as="geometry" />
        </mxCell>
        <mxCell id="MCamPFnZZMhp-FXQPMWc-11" value="" style="shape=module;jettyWidth=8;jettyHeight=4;" parent="MCamPFnZZMhp-FXQPMWc-10" vertex="1">
          <mxGeometry x="1" width="20" height="20" relative="1" as="geometry">
            <mxPoint x="-27" y="7" as="offset" />
          </mxGeometry>
        </mxCell>
        <mxCell id="MCamPFnZZMhp-FXQPMWc-12" value="&lt;b&gt;Analytics&lt;/b&gt;" style="html=1;dropTarget=0;whiteSpace=wrap;" parent="1" vertex="1">
          <mxGeometry x="400" y="240" width="180" height="90" as="geometry" />
        </mxCell>
        <mxCell id="MCamPFnZZMhp-FXQPMWc-13" value="" style="shape=module;jettyWidth=8;jettyHeight=4;" parent="MCamPFnZZMhp-FXQPMWc-12" vertex="1">
          <mxGeometry x="1" width="20" height="20" relative="1" as="geometry">
            <mxPoint x="-27" y="7" as="offset" />
          </mxGeometry>
        </mxCell>
        <mxCell id="MCamPFnZZMhp-FXQPMWc-69" value="Orchestrates Analytics" style="edgeStyle=orthogonalEdgeStyle;rounded=0;orthogonalLoop=1;jettySize=auto;html=1;exitX=1;exitY=0.5;exitDx=0;exitDy=0;fontStyle=1" parent="1" source="MCamPFnZZMhp-FXQPMWc-14" target="MCamPFnZZMhp-FXQPMWc-12" edge="1">
          <mxGeometry relative="1" as="geometry" />
        </mxCell>
        <mxCell id="MCamPFnZZMhp-FXQPMWc-14" value="&lt;b&gt;Apache Airflow&lt;/b&gt;" style="html=1;dropTarget=0;whiteSpace=wrap;" parent="1" vertex="1">
          <mxGeometry x="80" y="240" width="180" height="90" as="geometry" />
        </mxCell>
        <mxCell id="MCamPFnZZMhp-FXQPMWc-15" value="" style="shape=module;jettyWidth=8;jettyHeight=4;" parent="MCamPFnZZMhp-FXQPMWc-14" vertex="1">
          <mxGeometry x="1" width="20" height="20" relative="1" as="geometry">
            <mxPoint x="-27" y="7" as="offset" />
          </mxGeometry>
        </mxCell>
        <mxCell id="MCamPFnZZMhp-FXQPMWc-16" value="&lt;b&gt;Storage&lt;/b&gt;" style="html=1;dropTarget=0;whiteSpace=wrap;" parent="1" vertex="1">
          <mxGeometry x="400" y="440" width="180" height="90" as="geometry" />
        </mxCell>
        <mxCell id="MCamPFnZZMhp-FXQPMWc-17" value="" style="shape=module;jettyWidth=8;jettyHeight=4;" parent="MCamPFnZZMhp-FXQPMWc-16" vertex="1">
          <mxGeometry x="1" width="20" height="20" relative="1" as="geometry">
            <mxPoint x="-27" y="7" as="offset" />
          </mxGeometry>
        </mxCell>
        <mxCell id="MCamPFnZZMhp-FXQPMWc-18" value="&lt;b&gt;Processing&lt;/b&gt;" style="html=1;dropTarget=0;whiteSpace=wrap;" parent="1" vertex="1">
          <mxGeometry x="760" y="240" width="180" height="90" as="geometry" />
        </mxCell>
        <mxCell id="MCamPFnZZMhp-FXQPMWc-19" value="" style="shape=module;jettyWidth=8;jettyHeight=4;" parent="MCamPFnZZMhp-FXQPMWc-18" vertex="1">
          <mxGeometry x="1" width="20" height="20" relative="1" as="geometry">
            <mxPoint x="-27" y="7" as="offset" />
          </mxGeometry>
        </mxCell>
        <mxCell id="MCamPFnZZMhp-FXQPMWc-21" value="" style="ellipse;whiteSpace=wrap;html=1;align=center;aspect=fixed;fillColor=none;strokeColor=none;resizable=0;perimeter=centerPerimeter;rotatable=0;allowArrows=0;points=[];outlineConnect=1;" parent="1" vertex="1">
          <mxGeometry x="260" y="120" width="10" height="10" as="geometry" />
        </mxCell>
        <mxCell id="MCamPFnZZMhp-FXQPMWc-29" value="&lt;b&gt;Visualizations&lt;/b&gt;" style="html=1;dropTarget=0;whiteSpace=wrap;" parent="1" vertex="1">
          <mxGeometry x="400" y="600" width="180" height="90" as="geometry" />
        </mxCell>
        <mxCell id="MCamPFnZZMhp-FXQPMWc-30" value="" style="shape=module;jettyWidth=8;jettyHeight=4;" parent="MCamPFnZZMhp-FXQPMWc-29" vertex="1">
          <mxGeometry x="1" width="20" height="20" relative="1" as="geometry">
            <mxPoint x="-27" y="7" as="offset" />
          </mxGeometry>
        </mxCell>
        <mxCell id="MCamPFnZZMhp-FXQPMWc-31" value="" style="rounded=0;orthogonalLoop=1;jettySize=auto;html=1;endArrow=halfCircle;endFill=0;endSize=6;strokeWidth=1;sketch=0;fontSize=12;curved=1;exitX=0;exitY=0.5;exitDx=0;exitDy=0;" parent="1" source="MCamPFnZZMhp-FXQPMWc-10" target="MCamPFnZZMhp-FXQPMWc-32" edge="1">
          <mxGeometry relative="1" as="geometry">
            <mxPoint x="285" y="125" as="sourcePoint" />
          </mxGeometry>
        </mxCell>
        <mxCell id="MCamPFnZZMhp-FXQPMWc-33" value="&lt;b&gt;Packet Capture&lt;/b&gt;" style="edgeLabel;html=1;align=center;verticalAlign=middle;resizable=0;points=[];" parent="MCamPFnZZMhp-FXQPMWc-31" vertex="1" connectable="0">
          <mxGeometry x="0.0667" y="-2" relative="1" as="geometry">
            <mxPoint as="offset" />
          </mxGeometry>
        </mxCell>
        <mxCell id="MCamPFnZZMhp-FXQPMWc-32" value="" style="ellipse;whiteSpace=wrap;html=1;align=center;aspect=fixed;fillColor=none;strokeColor=none;resizable=0;perimeter=centerPerimeter;rotatable=0;allowArrows=0;points=[];outlineConnect=1;" parent="1" vertex="1">
          <mxGeometry x="260" y="120" width="10" height="10" as="geometry" />
        </mxCell>
        <mxCell id="MCamPFnZZMhp-FXQPMWc-34" value="" style="rounded=0;orthogonalLoop=1;jettySize=auto;html=1;endArrow=halfCircle;endFill=0;endSize=6;strokeWidth=1;sketch=0;fontSize=12;curved=1;exitX=0.5;exitY=0;exitDx=0;exitDy=0;" parent="1" source="MCamPFnZZMhp-FXQPMWc-12" target="MCamPFnZZMhp-FXQPMWc-35" edge="1">
          <mxGeometry relative="1" as="geometry">
            <mxPoint x="505" y="175" as="sourcePoint" />
          </mxGeometry>
        </mxCell>
        <mxCell id="Z_yVzGYmMGvhZh42bpe_-1" value="&lt;b&gt;Initiate Processing&lt;/b&gt;" style="edgeLabel;html=1;align=center;verticalAlign=middle;resizable=0;points=[];" vertex="1" connectable="0" parent="MCamPFnZZMhp-FXQPMWc-34">
          <mxGeometry x="0.2308" y="-1" relative="1" as="geometry">
            <mxPoint as="offset" />
          </mxGeometry>
        </mxCell>
        <mxCell id="MCamPFnZZMhp-FXQPMWc-35" value="" style="ellipse;whiteSpace=wrap;html=1;align=center;aspect=fixed;fillColor=none;strokeColor=none;resizable=0;perimeter=centerPerimeter;rotatable=0;allowArrows=0;points=[];outlineConnect=1;" parent="1" vertex="1">
          <mxGeometry x="485" y="170" width="10" height="10" as="geometry" />
        </mxCell>
        <mxCell id="MCamPFnZZMhp-FXQPMWc-39" value="Users" style="shape=umlActor;verticalLabelPosition=bottom;verticalAlign=top;html=1;" parent="1" vertex="1">
          <mxGeometry x="810" y="90" width="30" height="60" as="geometry" />
        </mxCell>
        <mxCell id="MCamPFnZZMhp-FXQPMWc-44" value="" style="rounded=0;orthogonalLoop=1;jettySize=auto;html=1;endArrow=halfCircle;endFill=0;endSize=6;strokeWidth=1;sketch=0;fontSize=12;curved=1;exitX=0;exitY=0.5;exitDx=0;exitDy=0;" parent="1" source="MCamPFnZZMhp-FXQPMWc-18" target="MCamPFnZZMhp-FXQPMWc-45" edge="1">
          <mxGeometry relative="1" as="geometry">
            <mxPoint x="605" y="285" as="sourcePoint" />
          </mxGeometry>
        </mxCell>
        <mxCell id="MCamPFnZZMhp-FXQPMWc-65" value="&lt;b&gt;Anomaly Detection Results&lt;/b&gt;" style="edgeLabel;html=1;align=center;verticalAlign=middle;resizable=0;points=[];" parent="MCamPFnZZMhp-FXQPMWc-44" vertex="1" connectable="0">
          <mxGeometry x="-0.0727" y="-2" relative="1" as="geometry">
            <mxPoint x="1" as="offset" />
          </mxGeometry>
        </mxCell>
        <mxCell id="MCamPFnZZMhp-FXQPMWc-45" value="" style="ellipse;whiteSpace=wrap;html=1;align=center;aspect=fixed;fillColor=none;strokeColor=none;resizable=0;perimeter=centerPerimeter;rotatable=0;allowArrows=0;points=[];outlineConnect=1;" parent="1" vertex="1">
          <mxGeometry x="580" y="280" width="10" height="10" as="geometry" />
        </mxCell>
        <mxCell id="MCamPFnZZMhp-FXQPMWc-47" value="" style="ellipse;whiteSpace=wrap;html=1;align=center;aspect=fixed;fillColor=none;strokeColor=none;resizable=0;perimeter=centerPerimeter;rotatable=0;allowArrows=0;points=[];outlineConnect=1;" parent="1" vertex="1">
          <mxGeometry x="480" y="330" width="10" height="10" as="geometry" />
        </mxCell>
        <mxCell id="MCamPFnZZMhp-FXQPMWc-56" value="" style="ellipse;whiteSpace=wrap;html=1;align=center;aspect=fixed;fillColor=none;strokeColor=none;resizable=0;perimeter=centerPerimeter;rotatable=0;allowArrows=0;points=[];outlineConnect=1;" parent="1" vertex="1">
          <mxGeometry x="320" y="410" width="10" height="10" as="geometry" />
        </mxCell>
        <mxCell id="MCamPFnZZMhp-FXQPMWc-58" value="" style="rounded=0;orthogonalLoop=1;jettySize=auto;html=1;endArrow=halfCircle;endFill=0;endSize=6;strokeWidth=1;sketch=0;fontSize=12;curved=1;exitX=0.5;exitY=0;exitDx=0;exitDy=0;" parent="1" source="MCamPFnZZMhp-FXQPMWc-16" target="MCamPFnZZMhp-FXQPMWc-59" edge="1">
          <mxGeometry relative="1" as="geometry">
            <mxPoint x="515" y="335" as="sourcePoint" />
          </mxGeometry>
        </mxCell>
        <mxCell id="MCamPFnZZMhp-FXQPMWc-62" value="Text" style="edgeLabel;html=1;align=center;verticalAlign=middle;resizable=0;points=[];" parent="MCamPFnZZMhp-FXQPMWc-58" vertex="1" connectable="0">
          <mxGeometry x="0.0667" y="1" relative="1" as="geometry">
            <mxPoint as="offset" />
          </mxGeometry>
        </mxCell>
        <mxCell id="MCamPFnZZMhp-FXQPMWc-64" value="&lt;b&gt;Anomaly Detection Results&lt;/b&gt;" style="edgeLabel;html=1;align=center;verticalAlign=middle;resizable=0;points=[];" parent="MCamPFnZZMhp-FXQPMWc-58" vertex="1" connectable="0">
          <mxGeometry x="0.0571" relative="1" as="geometry">
            <mxPoint x="1" as="offset" />
          </mxGeometry>
        </mxCell>
        <mxCell id="MCamPFnZZMhp-FXQPMWc-59" value="" style="ellipse;whiteSpace=wrap;html=1;align=center;aspect=fixed;fillColor=none;strokeColor=none;resizable=0;perimeter=centerPerimeter;rotatable=0;allowArrows=0;points=[];outlineConnect=1;" parent="1" vertex="1">
          <mxGeometry x="485" y="330" width="10" height="10" as="geometry" />
        </mxCell>
        <mxCell id="MCamPFnZZMhp-FXQPMWc-60" value="" style="rounded=0;orthogonalLoop=1;jettySize=auto;html=1;endArrow=halfCircle;endFill=0;endSize=6;strokeWidth=1;sketch=0;fontSize=12;curved=1;" parent="1" source="MCamPFnZZMhp-FXQPMWc-29" target="MCamPFnZZMhp-FXQPMWc-16" edge="1">
          <mxGeometry relative="1" as="geometry">
            <mxPoint x="515" y="535" as="sourcePoint" />
          </mxGeometry>
        </mxCell>
        <mxCell id="MCamPFnZZMhp-FXQPMWc-70" value="&lt;b&gt;Data Requests&lt;/b&gt;" style="edgeLabel;html=1;align=center;verticalAlign=middle;resizable=0;points=[];" parent="MCamPFnZZMhp-FXQPMWc-60" vertex="1" connectable="0">
          <mxGeometry x="0.0714" y="-1" relative="1" as="geometry">
            <mxPoint as="offset" />
          </mxGeometry>
        </mxCell>
        <mxCell id="MCamPFnZZMhp-FXQPMWc-61" value="" style="ellipse;whiteSpace=wrap;html=1;align=center;aspect=fixed;fillColor=none;strokeColor=none;resizable=0;perimeter=centerPerimeter;rotatable=0;allowArrows=0;points=[];outlineConnect=1;" parent="1" vertex="1">
          <mxGeometry x="490" y="530" width="10" height="10" as="geometry" />
        </mxCell>
        <mxCell id="MCamPFnZZMhp-FXQPMWc-66" value="" style="rounded=0;orthogonalLoop=1;jettySize=auto;html=1;endArrow=halfCircle;endFill=0;endSize=6;strokeWidth=1;sketch=0;fontSize=12;curved=0;exitX=1;exitY=0.25;exitDx=0;exitDy=0;" parent="1" source="MCamPFnZZMhp-FXQPMWc-16" target="MCamPFnZZMhp-FXQPMWc-67" edge="1">
          <mxGeometry relative="1" as="geometry">
            <mxPoint x="875" y="330" as="sourcePoint" />
            <Array as="points">
              <mxPoint x="855" y="463" />
            </Array>
          </mxGeometry>
        </mxCell>
        <mxCell id="MCamPFnZZMhp-FXQPMWc-68" value="&lt;b&gt;Features from Machine Learning &amp;amp;&lt;/b&gt;&lt;div&gt;&lt;b&gt;Deep Learning Models&lt;/b&gt;&lt;/div&gt;" style="edgeLabel;html=1;align=center;verticalAlign=middle;resizable=0;points=[];" parent="MCamPFnZZMhp-FXQPMWc-66" vertex="1" connectable="0">
          <mxGeometry x="-0.4166" y="-4" relative="1" as="geometry">
            <mxPoint as="offset" />
          </mxGeometry>
        </mxCell>
        <mxCell id="MCamPFnZZMhp-FXQPMWc-67" value="" style="ellipse;whiteSpace=wrap;html=1;align=center;aspect=fixed;fillColor=none;strokeColor=none;resizable=0;perimeter=centerPerimeter;rotatable=0;allowArrows=0;points=[];outlineConnect=1;" parent="1" vertex="1">
          <mxGeometry x="850" y="325" width="10" height="10" as="geometry" />
        </mxCell>
        <mxCell id="BTgv2hJ5ZbleKFl6reJI-5" value="" style="rounded=0;orthogonalLoop=1;jettySize=auto;html=1;endArrow=halfCircle;endFill=0;endSize=6;strokeWidth=1;sketch=0;exitX=0.5;exitY=0.5;exitDx=0;exitDy=0;exitPerimeter=0;" parent="1" source="MCamPFnZZMhp-FXQPMWc-39" target="BTgv2hJ5ZbleKFl6reJI-7" edge="1">
          <mxGeometry relative="1" as="geometry">
            <mxPoint x="620" y="120" as="sourcePoint" />
          </mxGeometry>
        </mxCell>
        <mxCell id="BTgv2hJ5ZbleKFl6reJI-8" value="&lt;b&gt;Data Streaming&lt;/b&gt;" style="edgeLabel;html=1;align=center;verticalAlign=middle;resizable=0;points=[];" parent="BTgv2hJ5ZbleKFl6reJI-5" vertex="1" connectable="0">
          <mxGeometry x="0.4844" y="-2" relative="1" as="geometry">
            <mxPoint as="offset" />
          </mxGeometry>
        </mxCell>
        <mxCell id="BTgv2hJ5ZbleKFl6reJI-6" value="" style="rounded=0;orthogonalLoop=1;jettySize=auto;html=1;endArrow=oval;endFill=0;sketch=0;sourcePerimeterSpacing=0;targetPerimeterSpacing=0;endSize=10;" parent="1" target="BTgv2hJ5ZbleKFl6reJI-7" edge="1">
          <mxGeometry relative="1" as="geometry">
            <mxPoint x="580" y="120" as="sourcePoint" />
          </mxGeometry>
        </mxCell>
        <mxCell id="BTgv2hJ5ZbleKFl6reJI-7" value="" style="ellipse;whiteSpace=wrap;html=1;align=center;aspect=fixed;fillColor=none;strokeColor=none;resizable=0;perimeter=centerPerimeter;rotatable=0;allowArrows=0;points=[];outlineConnect=1;" parent="1" vertex="1">
          <mxGeometry x="595" y="115" width="10" height="10" as="geometry" />
        </mxCell>
      </root>
    </mxGraphModel>
  </diagram>
</mxfile>
